<mxfile host="app.diagrams.net" modified="2020-12-13T03:16:01.487Z" agent="5.0 (Macintosh; Intel Mac OS X 10_15_6) AppleWebKit/537.36 (KHTML, like Gecko) Chrome/86.0.4240.193 Safari/537.36" etag="rBvHhoScAru1VP5O8Myz" version="14.0.1" type="github">
  <diagram id="eFF3X7ixNtFkOyJvCbLK" name="Page-1">
    <mxGraphModel dx="946" dy="538" grid="1" gridSize="10" guides="1" tooltips="1" connect="1" arrows="1" fold="1" page="1" pageScale="1" pageWidth="827" pageHeight="1169" math="0" shadow="0">
      <root>
        <mxCell id="0" />
        <mxCell id="1" parent="0" />
        <mxCell id="NC3Q2U-BEwjunnLDF6_4-1" value="" style="shape=table;html=1;whiteSpace=wrap;startSize=0;container=1;collapsible=0;childLayout=tableLayout;sketch=0;fillColor=#dae8fc;strokeColor=#6c8ebf;" vertex="1" parent="1">
          <mxGeometry x="202" y="160" width="370" height="50" as="geometry" />
        </mxCell>
        <mxCell id="NC3Q2U-BEwjunnLDF6_4-2" value="" style="shape=partialRectangle;html=1;whiteSpace=wrap;collapsible=0;dropTarget=0;pointerEvents=0;fillColor=none;top=0;left=0;bottom=0;right=0;points=[[0,0.5],[1,0.5]];portConstraint=eastwest;" vertex="1" parent="NC3Q2U-BEwjunnLDF6_4-1">
          <mxGeometry width="370" height="50" as="geometry" />
        </mxCell>
        <mxCell id="NC3Q2U-BEwjunnLDF6_4-3" value="1" style="shape=partialRectangle;html=1;whiteSpace=wrap;connectable=0;fillColor=none;top=0;left=0;bottom=0;right=0;overflow=hidden;" vertex="1" parent="NC3Q2U-BEwjunnLDF6_4-2">
          <mxGeometry width="74" height="50" as="geometry" />
        </mxCell>
        <mxCell id="NC3Q2U-BEwjunnLDF6_4-4" value="西施" style="shape=partialRectangle;html=1;whiteSpace=wrap;connectable=0;fillColor=none;top=0;left=0;bottom=0;right=0;overflow=hidden;" vertex="1" parent="NC3Q2U-BEwjunnLDF6_4-2">
          <mxGeometry x="74" width="74" height="50" as="geometry" />
        </mxCell>
        <mxCell id="NC3Q2U-BEwjunnLDF6_4-5" value="18" style="shape=partialRectangle;html=1;whiteSpace=wrap;connectable=0;fillColor=none;top=0;left=0;bottom=0;right=0;overflow=hidden;" vertex="1" parent="NC3Q2U-BEwjunnLDF6_4-2">
          <mxGeometry x="148" width="74" height="50" as="geometry" />
        </mxCell>
        <mxCell id="NC3Q2U-BEwjunnLDF6_4-6" value="200" style="shape=partialRectangle;html=1;whiteSpace=wrap;connectable=0;fillColor=none;top=0;left=0;bottom=0;right=0;overflow=hidden;" vertex="1" parent="NC3Q2U-BEwjunnLDF6_4-2">
          <mxGeometry x="222" width="74" height="50" as="geometry" />
        </mxCell>
        <mxCell id="NC3Q2U-BEwjunnLDF6_4-7" style="shape=partialRectangle;html=1;whiteSpace=wrap;connectable=0;fillColor=none;top=0;left=0;bottom=0;right=0;overflow=hidden;" vertex="1" parent="NC3Q2U-BEwjunnLDF6_4-2">
          <mxGeometry x="296" width="74" height="50" as="geometry" />
        </mxCell>
        <mxCell id="NC3Q2U-BEwjunnLDF6_4-8" value="" style="shape=table;html=1;whiteSpace=wrap;startSize=0;container=1;collapsible=0;childLayout=tableLayout;sketch=0;fillColor=#d5e8d4;strokeColor=#82b366;" vertex="1" parent="1">
          <mxGeometry x="202" y="260" width="370" height="50" as="geometry" />
        </mxCell>
        <mxCell id="NC3Q2U-BEwjunnLDF6_4-9" value="" style="shape=partialRectangle;html=1;whiteSpace=wrap;collapsible=0;dropTarget=0;pointerEvents=0;fillColor=none;top=0;left=0;bottom=0;right=0;points=[[0,0.5],[1,0.5]];portConstraint=eastwest;" vertex="1" parent="NC3Q2U-BEwjunnLDF6_4-8">
          <mxGeometry width="370" height="50" as="geometry" />
        </mxCell>
        <mxCell id="NC3Q2U-BEwjunnLDF6_4-10" value="1" style="shape=partialRectangle;html=1;whiteSpace=wrap;connectable=0;fillColor=none;top=0;left=0;bottom=0;right=0;overflow=hidden;" vertex="1" parent="NC3Q2U-BEwjunnLDF6_4-9">
          <mxGeometry width="74" height="50" as="geometry" />
        </mxCell>
        <mxCell id="NC3Q2U-BEwjunnLDF6_4-11" value="王昭君" style="shape=partialRectangle;html=1;whiteSpace=wrap;connectable=0;fillColor=none;top=0;left=0;bottom=0;right=0;overflow=hidden;" vertex="1" parent="NC3Q2U-BEwjunnLDF6_4-9">
          <mxGeometry x="74" width="74" height="50" as="geometry" />
        </mxCell>
        <mxCell id="NC3Q2U-BEwjunnLDF6_4-12" value="18" style="shape=partialRectangle;html=1;whiteSpace=wrap;connectable=0;fillColor=none;top=0;left=0;bottom=0;right=0;overflow=hidden;" vertex="1" parent="NC3Q2U-BEwjunnLDF6_4-9">
          <mxGeometry x="148" width="74" height="50" as="geometry" />
        </mxCell>
        <mxCell id="NC3Q2U-BEwjunnLDF6_4-13" value="100" style="shape=partialRectangle;html=1;whiteSpace=wrap;connectable=0;fillColor=none;top=0;left=0;bottom=0;right=0;overflow=hidden;" vertex="1" parent="NC3Q2U-BEwjunnLDF6_4-9">
          <mxGeometry x="222" width="74" height="50" as="geometry" />
        </mxCell>
        <mxCell id="NC3Q2U-BEwjunnLDF6_4-14" style="shape=partialRectangle;html=1;whiteSpace=wrap;connectable=0;fillColor=none;top=0;left=0;bottom=0;right=0;overflow=hidden;" vertex="1" parent="NC3Q2U-BEwjunnLDF6_4-9">
          <mxGeometry x="296" width="74" height="50" as="geometry" />
        </mxCell>
        <mxCell id="NC3Q2U-BEwjunnLDF6_4-15" value="" style="shape=table;html=1;whiteSpace=wrap;startSize=0;container=1;collapsible=0;childLayout=tableLayout;sketch=0;fillColor=#fff2cc;strokeColor=#d6b656;" vertex="1" parent="1">
          <mxGeometry x="202" y="370" width="370" height="50" as="geometry" />
        </mxCell>
        <mxCell id="NC3Q2U-BEwjunnLDF6_4-16" value="" style="shape=partialRectangle;html=1;whiteSpace=wrap;collapsible=0;dropTarget=0;pointerEvents=0;fillColor=none;top=0;left=0;bottom=0;right=0;points=[[0,0.5],[1,0.5]];portConstraint=eastwest;" vertex="1" parent="NC3Q2U-BEwjunnLDF6_4-15">
          <mxGeometry width="370" height="50" as="geometry" />
        </mxCell>
        <mxCell id="NC3Q2U-BEwjunnLDF6_4-17" value="1" style="shape=partialRectangle;html=1;whiteSpace=wrap;connectable=0;fillColor=none;top=0;left=0;bottom=0;right=0;overflow=hidden;" vertex="1" parent="NC3Q2U-BEwjunnLDF6_4-16">
          <mxGeometry width="74" height="50" as="geometry" />
        </mxCell>
        <mxCell id="NC3Q2U-BEwjunnLDF6_4-18" value="貂蝉" style="shape=partialRectangle;html=1;whiteSpace=wrap;connectable=0;fillColor=none;top=0;left=0;bottom=0;right=0;overflow=hidden;" vertex="1" parent="NC3Q2U-BEwjunnLDF6_4-16">
          <mxGeometry x="74" width="74" height="50" as="geometry" />
        </mxCell>
        <mxCell id="NC3Q2U-BEwjunnLDF6_4-19" value="18" style="shape=partialRectangle;html=1;whiteSpace=wrap;connectable=0;fillColor=none;top=0;left=0;bottom=0;right=0;overflow=hidden;" vertex="1" parent="NC3Q2U-BEwjunnLDF6_4-16">
          <mxGeometry x="148" width="74" height="50" as="geometry" />
        </mxCell>
        <mxCell id="NC3Q2U-BEwjunnLDF6_4-20" value="10" style="shape=partialRectangle;html=1;whiteSpace=wrap;connectable=0;fillColor=none;top=0;left=0;bottom=0;right=0;overflow=hidden;" vertex="1" parent="NC3Q2U-BEwjunnLDF6_4-16">
          <mxGeometry x="222" width="74" height="50" as="geometry" />
        </mxCell>
        <mxCell id="NC3Q2U-BEwjunnLDF6_4-21" style="shape=partialRectangle;html=1;whiteSpace=wrap;connectable=0;fillColor=none;top=0;left=0;bottom=0;right=0;overflow=hidden;" vertex="1" parent="NC3Q2U-BEwjunnLDF6_4-16">
          <mxGeometry x="296" width="74" height="50" as="geometry" />
        </mxCell>
        <mxCell id="NC3Q2U-BEwjunnLDF6_4-22" style="edgeStyle=orthogonalEdgeStyle;rounded=0;orthogonalLoop=1;jettySize=auto;html=1;exitX=1;exitY=0.5;exitDx=0;exitDy=0;entryX=0;entryY=0.5;entryDx=0;entryDy=0;sketch=0;shadow=0;" edge="1" parent="1" source="NC3Q2U-BEwjunnLDF6_4-2" target="NC3Q2U-BEwjunnLDF6_4-9">
          <mxGeometry relative="1" as="geometry" />
        </mxCell>
        <mxCell id="NC3Q2U-BEwjunnLDF6_4-23" style="edgeStyle=orthogonalEdgeStyle;rounded=0;orthogonalLoop=1;jettySize=auto;html=1;exitX=1;exitY=0.5;exitDx=0;exitDy=0;entryX=0;entryY=0.5;entryDx=0;entryDy=0;sketch=0;shadow=0;" edge="1" parent="1" source="NC3Q2U-BEwjunnLDF6_4-9" target="NC3Q2U-BEwjunnLDF6_4-16">
          <mxGeometry relative="1" as="geometry" />
        </mxCell>
        <mxCell id="NC3Q2U-BEwjunnLDF6_4-24" value="&lt;b&gt;&lt;font style=&quot;font-size: 14px&quot;&gt;id&lt;/font&gt;&lt;/b&gt;" style="text;html=1;strokeColor=none;fillColor=none;align=center;verticalAlign=middle;whiteSpace=wrap;rounded=0;sketch=0;" vertex="1" parent="1">
          <mxGeometry x="222" y="120" width="40" height="20" as="geometry" />
        </mxCell>
        <mxCell id="NC3Q2U-BEwjunnLDF6_4-25" value="&lt;b&gt;&lt;font style=&quot;font-size: 14px&quot;&gt;name&lt;/font&gt;&lt;/b&gt;" style="text;html=1;strokeColor=none;fillColor=none;align=center;verticalAlign=middle;whiteSpace=wrap;rounded=0;sketch=0;" vertex="1" parent="1">
          <mxGeometry x="292" y="120" width="40" height="20" as="geometry" />
        </mxCell>
        <mxCell id="NC3Q2U-BEwjunnLDF6_4-26" value="&lt;b&gt;&lt;font style=&quot;font-size: 14px&quot;&gt;age&lt;/font&gt;&lt;/b&gt;" style="text;html=1;strokeColor=none;fillColor=none;align=center;verticalAlign=middle;whiteSpace=wrap;rounded=0;sketch=0;" vertex="1" parent="1">
          <mxGeometry x="367" y="120" width="40" height="20" as="geometry" />
        </mxCell>
        <mxCell id="NC3Q2U-BEwjunnLDF6_4-27" value="&lt;b&gt;&lt;font style=&quot;font-size: 14px&quot;&gt;trx_id&lt;/font&gt;&lt;/b&gt;" style="text;html=1;strokeColor=none;fillColor=none;align=center;verticalAlign=middle;whiteSpace=wrap;rounded=0;sketch=0;" vertex="1" parent="1">
          <mxGeometry x="436" y="120" width="40" height="20" as="geometry" />
        </mxCell>
        <mxCell id="NC3Q2U-BEwjunnLDF6_4-28" value="&lt;b&gt;&lt;font style=&quot;font-size: 14px&quot;&gt;roll_pointer&lt;/font&gt;&lt;/b&gt;" style="text;html=1;strokeColor=none;fillColor=none;align=center;verticalAlign=middle;whiteSpace=wrap;rounded=0;sketch=0;" vertex="1" parent="1">
          <mxGeometry x="512" y="120" width="40" height="20" as="geometry" />
        </mxCell>
        <mxCell id="NC3Q2U-BEwjunnLDF6_4-29" value="" style="shape=curlyBracket;whiteSpace=wrap;html=1;rounded=1;sketch=0;" vertex="1" parent="1">
          <mxGeometry x="142" y="250" width="20" height="120" as="geometry" />
        </mxCell>
        <mxCell id="NC3Q2U-BEwjunnLDF6_4-30" value="&lt;b&gt;&lt;font style=&quot;font-size: 14px&quot;&gt;数据库中的最新记录&lt;/font&gt;&lt;/b&gt;" style="text;html=1;strokeColor=none;fillColor=none;align=center;verticalAlign=middle;whiteSpace=wrap;rounded=0;sketch=0;" vertex="1" parent="1">
          <mxGeometry x="22" y="175" width="140" height="15" as="geometry" />
        </mxCell>
        <mxCell id="NC3Q2U-BEwjunnLDF6_4-31" value="&lt;b&gt;&lt;font style=&quot;font-size: 14px&quot;&gt;undo日志&lt;/font&gt;&lt;/b&gt;" style="text;html=1;strokeColor=none;fillColor=none;align=center;verticalAlign=middle;whiteSpace=wrap;rounded=0;sketch=0;" vertex="1" parent="1">
          <mxGeometry x="22" y="302.5" width="110" height="15" as="geometry" />
        </mxCell>
        <mxCell id="NC3Q2U-BEwjunnLDF6_4-32" value="" style="shape=curlyBracket;whiteSpace=wrap;html=1;rounded=1;sketch=0;direction=west;" vertex="1" parent="1">
          <mxGeometry x="622" y="182.5" width="20" height="217.5" as="geometry" />
        </mxCell>
        <mxCell id="NC3Q2U-BEwjunnLDF6_4-33" value="&lt;b&gt;&lt;font style=&quot;font-size: 14px&quot;&gt;串成了一个版本链&lt;/font&gt;&lt;/b&gt;" style="text;html=1;strokeColor=none;fillColor=none;align=center;verticalAlign=middle;whiteSpace=wrap;rounded=0;sketch=0;" vertex="1" parent="1">
          <mxGeometry x="652" y="283.75" width="140" height="15" as="geometry" />
        </mxCell>
      </root>
    </mxGraphModel>
  </diagram>
</mxfile>
